@startuml

interface halt_command <<EmptySrv>>
interface degree_command <<DegreeCommandMsg>>
interface unhalt_command <<EmptySrv>>
interface pose_command <<PoseCommandMsg>>
interface transmitted_command
interface serialized_command <<StringMsg>>

component "<u>DemoRunner</u>" <<ROSNode>> as DemoRunner #SkyBlue
component "<u>RobotCommander</u>" <<ROSNode>> as RobotCommander #LimeGreen-Salmon
component "<u>CommandTransmitter</u>" <<ROSNode>> as CommandTransmitter #LimeGreen

DemoRunner --( halt_command
DemoRunner --( degree_command
DemoRunner --( unhalt_command
DemoRunner --( pose_command
halt_command -- RobotCommander
unhalt_command -- RobotCommander
pose_command -- RobotCommander
degree_command -- RobotCommander
CommandTransmitter #--( transmitted_command
RobotCommander -- serialized_command
CommandTransmitter --( serialized_command

legend right
  <b><color:SkyBlue>Demo application</color></b>
  <b><color:LimeGreen>High-level interface</color></b>
  <b><color:Salmon>Low-level interface</color></b>
endlegend

@enduml
